<svg xmlns="http://www.w3.org/2000/svg" xmlns:xlink="http://www.w3.org/1999/xlink" version="1.1" class="marks"
    width="449" height="202" viewBox="0 0 449 202">
    <defs>
        <style>
            .legend-label {
                font-family: sans-serif;
                font-size: 10px;
                fill: #000;
                opacity: 1;
            }

            .strongly-disagree {
                fill: #c30d24;
            }

            .disagree {
                fill: #f3a583;
            }

            .neither-nor {
                fill: #cccccc;
            }

            .agree {
                fill: #94c6da;
            }

            .strongly-agree {
                fill: #1770ab;
            }

            .y-axis-title {
                font-family: sans-serif;
                font-size: 11px;
                font-weight: bold;
                fill: #000;
                opacity: 1;
                text-anchor: middle;
            }

            .y-axis-label {
                font-family: sans-serif;
                font-size: 10px;
                fill: #000;
                opacity: 1;
                text-anchor: end;
            }

            .x-axis-tick-line {
                stroke: #888;
                stroke-width: 1;
                opacity: 1;
            }

            .x-axis-tick-label {
                font-family: sans-serif;
                font-size: 10px;
                text-anchor: middle;
            }

            .x-axis-domain {
                stroke: #888;
                stroke-width: 1;
                opacity: 1;
            }

            .x-axis-title {
                font-family: sans-serif;
                font-size: 11px;
                font-weight: bold;
                fill: #000;
                opacity: 1;
                text-anchor: middle;
            }

            .x-axis-grid {
                stroke: #ddd;
                stroke-width: 1;
                opacity: 1;
            }
        </style>
        <shape elements=".bar" type="rect" />
        <encoding elements=".bar" channel="width" field="Percentage"/>
        <encoding elements=".bar" channel="fill" field="Response"/>
        <encoding elements=".bar" channel="y" field="Question"/>
        <constraint elements=".neither-nor"/>
    </defs>
    <g transform="translate(85,5)">

        <g transform="translate(0.5,160.5)">
            <line class="x-axis-domain" transform="translate(0,0)" x2="200" y2="0">
            </line>
            <text class="x-axis-title" transform="translate(100,30)">Percentage</text>
            <g>
                <g>
                    <line class="x-axis-tick-line" transform="translate(0,0)" x2="0" y2="5">
                    </line>
                    <text class="x-axis-tick-label" transform="translate(0,15)" fill="#000" opacity="1">−40</text>
                </g>
                <g>
                    <line class="x-axis-tick-line" transform="translate(29,0)" x2="0" y2="5">
                    </line>
                    <text class="x-axis-tick-label" transform="translate(29,15)" fill="#000" opacity="0">−20</text>
                </g>
                <g>
                    <line class="x-axis-tick-line" transform="translate(57,0)" x2="0" y2="5">
                    </line>
                    <text class="x-axis-tick-label" transform="translate(57,15)" fill="#000" opacity="1">0</text>
                </g>
                <g>
                    <line class="x-axis-tick-line" transform="translate(86,0)" x2="0" y2="5">
                    </line>
                    <text class="x-axis-tick-label" transform="translate(86,15)" fill="#000" opacity="0">20</text>
                </g>
                <g>
                    <line class="x-axis-tick-line" transform="translate(114,0)" x2="0" y2="5">
                    </line>
                    <text class="x-axis-tick-label" text-anchor="middle" transform="translate(114.28571428571428,15)"
                        fill="#000" opacity="1">40</text>
                </g>
                <g>
                    <line class="x-axis-tick-line" transform="translate(143,0)" x2="0" y2="5">
                    </line>
                    <text class="x-axis-tick-label" text-anchor="middle" transform="translate(142.85714285714286,15)"
                        fill="#000" opacity="0">60</text>
                </g>
                <g>
                    <line class="x-axis-tick-line" transform="translate(171,0)" x2="0" y2="5">
                    </line>
                    <text class="x-axis-tick-label" text-anchor="middle" transform="translate(171.42857142857142,15)"
                        fill="#000" opacity="1">80</text>
                </g>
                <g>
                    <line class="x-axis-tick-line" transform="translate(200,0)" x2="0" y2="5">
                    </line>
                    <text class="x-axis-tick-label" text-anchor="end" transform="translate(200,15)" fill="#000"
                        opacity="0">100</text>
                </g>

            </g>
            <g>
                <line class="x-axis-grid" transform="translate(0,0)" x2="0" y2="-160">
                </line>
                <line class="x-axis-grid" transform="translate(29,0)" x2="0" y2="-160">
                </line>
                <line class="x-axis-grid" transform="translate(57,0)" x2="0" y2="-160">
                </line>
                <line class="x-axis-grid" transform="translate(86,0)" x2="0" y2="-160">
                </line>
                <line class="x-axis-grid" transform="translate(114,0)" x2="0" y2="-160">
                </line>
                <line class="x-axis-grid" transform="translate(143,0)" x2="0" y2="-160">
                </line>
                <line class="x-axis-grid" transform="translate(171,0)" x2="0" y2="-160">
                </line>
                <line class="x-axis-grid" transform="translate(200,0)" x2="0" y2="-160">
                </line>
            </g>
        </g>

        <g transform="translate(-4.5,0.5)">
            <text class="y-axis-title" transform="translate(-64,80) rotate(-90) translate(0,-2)">Question</text>
            <g>
                <text class="y-axis-label" transform="translate(-2,12.5)">Question 1</text>
                <text class="y-axis-label" transform="translate(-2,32.5)">Question 2</text>
                <text class="y-axis-label" transform="translate(-2,52.5)">Question 3</text>
                <text class="y-axis-label" transform="translate(-2,72.5)">Question 4</text>
                <text class="y-axis-label" transform="translate(-2,92.5)">Question 5</text>
                <text class="y-axis-label" transform="translate(-2,112.5)">Question 6</text>
                <text class="y-axis-label" transform="translate(-2,132.5)">Question 7</text>
                <text class="y-axis-label" transform="translate(-2,152.5)">Question 8</text>
            </g>
        </g>

        <g>
            <g>
                <path class="bar strongly-disagree" d="M29.92857142857143,1h1.0000000000000036v18h-1.0000000000000036Z">
                </path>
                <path class="bar disagree" d="M30.928571428571434,1h12.999999999999996v18h-12.999999999999996Z"></path>
                <path class="bar neither-nor" d="M43.92857142857143,1h26.42857142857143v18h-26.42857142857143Z"></path>
                <path class="bar agree" d="M70.35714285714286,1h85.57142857142856v18h-85.57142857142856Z"></path>
                <path class="bar strongly-agree" d="M155.92857142857142,1h16.714285714285722v18h-16.714285714285722Z">
                </path>
            </g>
            <g>
                <path class="bar strongly-disagree" d="M5.142857142857145,21h26v18h-26Z">
                </path>
                <path class="bar disagree" d="M31.142857142857146,21h25.999999999999993v18h-25.999999999999993Z"></path>
                <path class="bar neither-nor" d="M57.14285714285714,21h0v18h0Z">
                </path>
                <path class="bar agree" d="M57.14285714285714,21h90.85714285714286v18h-90.85714285714286Z"></path>
                <path class="bar strongly-agree" d="M148,21h0v18h0Z"></path>
            </g>
            <g>
                <path class="bar strongly-disagree" d="M14.285714285714285,41h28.57142857142857v18h-28.57142857142857Z">
                </path>
                <path class="bar disagree" d="M42.857142857142854,41h0v18h0Z">
                </path>
                <path class="bar neither-nor" d="M42.857142857142854,41h28.571428571428577v18h-28.571428571428577Z">
                </path>
                <path class="bar agree" d="M71.42857142857143,41h57.14285714285715v18h-57.14285714285715Z"></path>
                <path class="bar strongly-agree" d="M128.57142857142858,41h28.571428571428555v18h-28.571428571428555Z">
                </path>
            </g>
            <g>
                <path class="bar strongly-disagree" d="M34.785714285714285,61h0v18h0Z">
                </path>
                <path class="bar disagree" d="M34.785714285714285,61h17.85714285714286v18h-17.85714285714286Z"></path>
                <path class="bar neither-nor" d="M52.642857142857146,61h9v18h-9Z">
                </path>
                <path class="bar agree" d="M61.642857142857146,61h62.57142857142855v18h-62.57142857142855Z"></path>
                <path class="bar strongly-agree" d="M124.2142857142857,61h53.571428571428584v18h-53.571428571428584Z">
                </path>
            </g>
            <g>
                <path class="bar strongly-disagree" d="M42.214285714285715,81h0v18h0Z">
                </path>
                <path class="bar disagree" d="M42.214285714285715,81h6v18h-6Z">
                </path>
                <path class="bar neither-nor" d="M48.214285714285715,81h17.857142857142854v18h-17.857142857142854Z">
                </path>
                <path class="bar agree" d="M66.07142857142857,81h95.28571428571429v18h-95.28571428571429Z"></path>
                <path class="bar strongly-agree" d="M161.35714285714286,81h23.85714285714286v18h-23.85714285714286Z">
                </path>
            </g>
            <g>
                <path class="bar strongly-disagree" d="M30.21428571428571,101h9.000000000000004v18h-9.000000000000004Z">
                </path>
                <path class="bar disagree" d="M39.214285714285715,101h9v18h-9Z">
                </path>
                <path class="bar neither-nor" d="M48.214285714285715,101h17.857142857142854v18h-17.857142857142854Z">
                </path>
                <path class="bar agree" d="M66.07142857142857,101h80.42857142857143v18h-80.42857142857143Z"></path>
                <path class="bar strongly-agree" d="M146.5,101h26.85714285714286v18h-26.85714285714286Z"></path>
            </g>
            <g>
                <path class="bar strongly-disagree" d="M42.857142857142854,121h0v18h0Z">
                </path>
                <path class="bar disagree" d="M42.857142857142854,121h0v18h0Z">
                </path>
                <path class="bar neither-nor" d="M42.857142857142854,121h28.571428571428577v18h-28.571428571428577Z">
                </path>
                <path class="bar agree" d="M71.42857142857143,121h114.28571428571429v18h-114.28571428571429Z"></path>
                <path class="bar strongly-agree" d="M185.71428571428572,121h0v18h0Z">
                </path>
            </g>
            <g>
                <path class="bar strongly-disagree" d="M57.14285714285714,141h0v18h0Z">
                </path>
                <path class="bar disagree" d="M57.14285714285714,141h0v18h0Z">
                </path>
                <path class="bar neither-nor" d="M57.14285714285714,141h0v18h0Z">
                </path>
                <path class="bar agree" d="M57.14285714285714,141h0v18h0Z">
                </path>
                <path class="bar strongly-agree" d="M57.14285714285714,141h142.85714285714286v18h-142.85714285714286Z">
                </path>
            </g>
        </g>

        <g transform="translate(218,0)">
            <g transform="translate(0,16)">
                <g>
                    <path class="legend-symbol strongly-disagree" transform="translate(6,6)" d="M-5,-5h10v10h-10Z">
                    </path>
                    <text class="legend-label" transform="translate(16,9)">Strongly
                        disagree</text>
                </g>
                <g transform="translate(0,13)">
                    <path class="legend-symbol disagree" transform="translate(6,6)" d="M-5,-5h10v10h-10Z"></path>
                    <text class="legend-label" transform="translate(16,9)">Disagree</text>
                </g>
                <g transform="translate(0,26)">
                    <path class="legend-symbol neither-nor" transform="translate(6,6)" d="M-5,-5h10v10h-10Z"></path>
                    <text class="legend-label" transform="translate(16,9)">Neither agree nor
                        disagree</text>
                </g>
                <g transform="translate(0,39)">
                    <path class="legend-symbol agree" transform="translate(6,6)" d="M-5,-5h10v10h-10Z"></path>
                    <text class="legend-label" transform="translate(16,9)">Agree</text>
                </g>
                <g transform="translate(0,52)">
                    <path class="legend-symbol strongly-agree" transform="translate(6,6)" d="M-5,-5h10v10h-10Z">
                    </path>
                    <text class="legend-label" transform="translate(16,9)">Strongly agree</text>
                </g>
            </g>
            <text class="legend-title" transform="translate(0,9)" font-family="sans-serif" font-size="11px"
                font-weight="bold" fill="#000" opacity="1">Response</text>
        </g>
    </g>
</svg>