<svg xmlns="http://www.w3.org/2000/svg" xmlns:xlink="http://www.w3.org/1999/xlink" version="1.1" width="277"
  height="210" viewBox="0 0 277 210" style="background-color: white">
  <defs>
    <style>
      .category1 {
        fill: #4c78a8;
      }

      .category2 {
        fill: #f58518;
      }

      .category3 {
        fill: #e45756;
      }

      .category4 {
        fill: #72b7b2;
      }

      .category5 {
        fill: #54a24b;
      }

      .category6 {
        fill: #eeca3b;
      }

      .legend-title {
        text-anchor: start;
        font-family: sans-serif;
        font-size: 11px;
        font-weight: bold;
        fill: #000;
      }

      .legend-label {
        text-anchor: start;
        font-family: sans-serif;
        font-size: 10px;
        fill: #000;
      }
    </style>

    <encoding elements=".arc" channel="angle" field="amount"/>
    <shape elements=".arc" type="arc"/> 
  </defs>
  <g fill="none" stroke-miterlimit="10" transform="translate(5,5)">
    <g>
      <path transform="translate(100,100)"
        d="M58.269,-74.864A5,5,0,0,0,57.183,-82.037A100,100,0,0,0,5.263,-99.861A5,5,0,0,0,0,-94.868L0,-54.772A5,5,0,0,0,4.545,-49.793A50,50,0,0,1,26.996,-42.086A5,5,0,0,0,33.642,-43.223Z"
        class="arc category1"></path>
      <path transform="translate(100,100)"
        d="M94.544,7.834A5,5,0,0,0,99.955,3.001A100,100,0,0,0,65.49,-75.572A5,5,0,0,0,58.269,-74.864L33.642,-43.223A5,5,0,0,0,34.17,-36.502A50,50,0,0,1,49.998,-0.418A5,5,0,0,0,54.585,4.523Z"
        class="arc category2"></path>
      <path transform="translate(100,100)"
        d="M-15.615,93.574A5,5,0,0,0,-11.245,99.366A100,100,0,0,0,99.086,13.492A5,5,0,0,0,94.544,7.834L54.585,4.523A5,5,0,0,0,49.248,8.642A50,50,0,0,1,-3.712,49.862A5,5,0,0,0,-9.015,54.025Z"
        class="arc category3"></path>
      <path transform="translate(100,100)"
        d="M-58.269,74.864A5,5,0,0,0,-57.183,82.037A100,100,0,0,0,-21.628,97.633A5,5,0,0,0,-15.615,93.574L-9.015,54.025A5,5,0,0,0,-12.679,48.366A50,50,0,0,1,-26.996,42.086A5,5,0,0,0,-33.642,43.223Z"
        class="arc category4"></path>
      <path transform="translate(100,100)"
        d="M-91.965,-23.289A5,5,0,0,0,-98.098,-19.412A100,100,0,0,0,-65.49,75.572A5,5,0,0,0,-58.269,74.864L-33.642,43.223A5,5,0,0,0,-34.17,36.502A50,50,0,0,1,-49.385,-7.817A5,5,0,0,0,-53.096,-13.446Z"
        class="arc category5"></path>
      <path transform="translate(100,100)"
        d="M0,-94.868A5,5,0,0,0,-5.263,-99.861A100,100,0,0,0,-95.514,-29.617A5,5,0,0,0,-91.965,-23.289L-53.096,-13.446A5,5,0,0,0,-47.153,-16.63A50,50,0,0,1,-4.545,-49.793A5,5,0,0,0,0,-54.772Z"
        class="arc category6"></path>
    </g>
    <g>
      <text class="legend-title" transform="translate(218,9)">
        category
      </text>
      <g transform="translate(0,16)">
        <g transform="translate(218,0)">
          <path transform="translate(6,6)" d="M5,0A5,5,0,1,1,-5,0A5,5,0,1,1,5,0" class="category1 legend-symbol"
            stroke-width="1.5"></path>
          <text class="legend-label" transform="translate(16,9)">
            1
          </text>
        </g>
        <g transform="translate(218,13)">
          <path transform="translate(6,6)" d="M5,0A5,5,0,1,1,-5,0A5,5,0,1,1,5,0" fill="#f58518" stroke-width="1.5">
          </path>
          <text class="legend-label" transform="translate(16,9)">
            2
          </text>
        </g>
        <g transform="translate(218,26)">
          <path transform="translate(6,6)" d="M5,0A5,5,0,1,1,-5,0A5,5,0,1,1,5,0" fill="#e45756" stroke-width="1.5">
          </path>
          <text class="legend-label" transform="translate(16,9)">
            3
          </text>
        </g>
        <g transform="translate(218,39)">
          <path transform="translate(6,6)" d="M5,0A5,5,0,1,1,-5,0A5,5,0,1,1,5,0" fill="#72b7b2" stroke-width="1.5">
          </path>
          <text class="legend-label" transform="translate(16,9)">
            4
          </text>
        </g>
        <g transform="translate(218,52)">
          <path transform="translate(6,6)" d="M5,0A5,5,0,1,1,-5,0A5,5,0,1,1,5,0" fill="#54a24b" stroke-width="1.5">
          </path>
          <text class="legend-label" transform="translate(16,9)">
            5
          </text>
        </g>
        <g transform="translate(218,65)">
          <path transform="translate(6,6)" d="M5,0A5,5,0,1,1,-5,0A5,5,0,1,1,5,0" fill="#eeca3b" stroke-width="1.5">
          </path>
          <text class="legend-label" transform="translate(16,9)">
            6
          </text>
        </g>
      </g>
    </g>
  </g>
</svg>